<mxfile host="app.diagrams.net" modified="2024-05-30T13:46:41.341Z" agent="Mozilla/5.0 (Windows NT 10.0; Win64; x64) AppleWebKit/537.36 (KHTML, like Gecko) Chrome/125.0.0.0 Safari/537.36" version="24.4.10" etag="_nifD6OCYP-roZE-GwR1" type="device">
  <diagram id="VVZWFmEN74-GmJMnvq_l" name="Страница — 1">
    <mxGraphModel dx="1345" dy="823" grid="1" gridSize="10" guides="1" tooltips="1" connect="1" arrows="1" fold="1" page="1" pageScale="1" pageWidth="850" pageHeight="1100" math="0" shadow="0">
      <root>
        <mxCell id="0" />
        <mxCell id="1" parent="0" />
        <mxCell id="6aoy4rqkBioUecq8IIgT-1" value="" style="ellipse;html=1;shape=startState;fillColor=#000000;strokeColor=#ff0000;" vertex="1" parent="1">
          <mxGeometry x="395" y="40" width="30" height="30" as="geometry" />
        </mxCell>
        <mxCell id="6aoy4rqkBioUecq8IIgT-2" value="" style="edgeStyle=orthogonalEdgeStyle;html=1;verticalAlign=bottom;endArrow=open;endSize=8;strokeColor=#ff0000;rounded=0;" edge="1" source="6aoy4rqkBioUecq8IIgT-1" parent="1">
          <mxGeometry relative="1" as="geometry">
            <mxPoint x="410" y="130" as="targetPoint" />
          </mxGeometry>
        </mxCell>
        <mxCell id="6aoy4rqkBioUecq8IIgT-17" style="edgeStyle=none;rounded=0;orthogonalLoop=1;jettySize=auto;html=1;exitX=0;exitY=0.5;exitDx=0;exitDy=0;entryX=0.5;entryY=0;entryDx=0;entryDy=0;strokeColor=default;align=center;verticalAlign=middle;fontFamily=Helvetica;fontSize=11;fontColor=default;labelBackgroundColor=default;endArrow=classic;" edge="1" parent="1" source="6aoy4rqkBioUecq8IIgT-3" target="6aoy4rqkBioUecq8IIgT-9">
          <mxGeometry relative="1" as="geometry">
            <Array as="points">
              <mxPoint x="170" y="170" />
            </Array>
          </mxGeometry>
        </mxCell>
        <mxCell id="6aoy4rqkBioUecq8IIgT-18" value="Jā" style="edgeLabel;html=1;align=center;verticalAlign=middle;resizable=0;points=[];fontFamily=Helvetica;fontSize=11;fontColor=default;labelBackgroundColor=default;" vertex="1" connectable="0" parent="6aoy4rqkBioUecq8IIgT-17">
          <mxGeometry x="-0.4591" relative="1" as="geometry">
            <mxPoint as="offset" />
          </mxGeometry>
        </mxCell>
        <mxCell id="6aoy4rqkBioUecq8IIgT-19" style="edgeStyle=none;rounded=0;orthogonalLoop=1;jettySize=auto;html=1;exitX=1;exitY=0.5;exitDx=0;exitDy=0;entryX=0.5;entryY=0;entryDx=0;entryDy=0;strokeColor=default;align=center;verticalAlign=middle;fontFamily=Helvetica;fontSize=11;fontColor=default;labelBackgroundColor=default;endArrow=classic;" edge="1" parent="1" source="6aoy4rqkBioUecq8IIgT-3" target="6aoy4rqkBioUecq8IIgT-4">
          <mxGeometry relative="1" as="geometry">
            <Array as="points">
              <mxPoint x="816" y="170" />
            </Array>
          </mxGeometry>
        </mxCell>
        <mxCell id="6aoy4rqkBioUecq8IIgT-20" value="Nē" style="edgeLabel;html=1;align=center;verticalAlign=middle;resizable=0;points=[];fontFamily=Helvetica;fontSize=11;fontColor=default;labelBackgroundColor=default;" vertex="1" connectable="0" parent="6aoy4rqkBioUecq8IIgT-19">
          <mxGeometry x="-0.9239" y="1" relative="1" as="geometry">
            <mxPoint as="offset" />
          </mxGeometry>
        </mxCell>
        <mxCell id="6aoy4rqkBioUecq8IIgT-3" value="start == True" style="rhombus;whiteSpace=wrap;html=1;" vertex="1" parent="1">
          <mxGeometry x="360" y="130" width="100" height="80" as="geometry" />
        </mxCell>
        <mxCell id="6aoy4rqkBioUecq8IIgT-4" value="" style="ellipse;html=1;shape=endState;fillColor=#000000;strokeColor=#ff0000;" vertex="1" parent="1">
          <mxGeometry x="801" y="1044" width="30" height="30" as="geometry" />
        </mxCell>
        <mxCell id="6aoy4rqkBioUecq8IIgT-16" style="edgeStyle=none;rounded=0;orthogonalLoop=1;jettySize=auto;html=1;exitX=0.5;exitY=1;exitDx=0;exitDy=0;entryX=0.5;entryY=0;entryDx=0;entryDy=0;strokeColor=default;align=center;verticalAlign=middle;fontFamily=Helvetica;fontSize=11;fontColor=default;labelBackgroundColor=default;endArrow=classic;" edge="1" parent="1" source="6aoy4rqkBioUecq8IIgT-9" target="6aoy4rqkBioUecq8IIgT-12">
          <mxGeometry relative="1" as="geometry" />
        </mxCell>
        <mxCell id="6aoy4rqkBioUecq8IIgT-9" value="Saglabā vārdu" style="rounded=1;whiteSpace=wrap;html=1;fontFamily=Helvetica;fontSize=11;fontColor=default;labelBackgroundColor=default;" vertex="1" parent="1">
          <mxGeometry x="110" y="200" width="120" height="40" as="geometry" />
        </mxCell>
        <mxCell id="6aoy4rqkBioUecq8IIgT-21" style="edgeStyle=none;rounded=0;orthogonalLoop=1;jettySize=auto;html=1;exitX=1;exitY=0.5;exitDx=0;exitDy=0;strokeColor=default;align=center;verticalAlign=middle;fontFamily=Helvetica;fontSize=11;fontColor=default;labelBackgroundColor=default;endArrow=classic;" edge="1" parent="1" source="6aoy4rqkBioUecq8IIgT-12">
          <mxGeometry relative="1" as="geometry">
            <mxPoint x="170" y="260" as="targetPoint" />
            <Array as="points">
              <mxPoint x="260" y="320" />
              <mxPoint x="260" y="260" />
              <mxPoint x="230" y="260" />
            </Array>
          </mxGeometry>
        </mxCell>
        <mxCell id="6aoy4rqkBioUecq8IIgT-22" value="Nē" style="edgeLabel;html=1;align=center;verticalAlign=middle;resizable=0;points=[];fontFamily=Helvetica;fontSize=11;fontColor=default;labelBackgroundColor=default;" vertex="1" connectable="0" parent="6aoy4rqkBioUecq8IIgT-21">
          <mxGeometry x="-0.8584" y="1" relative="1" as="geometry">
            <mxPoint x="6" y="1" as="offset" />
          </mxGeometry>
        </mxCell>
        <mxCell id="6aoy4rqkBioUecq8IIgT-24" style="edgeStyle=none;rounded=0;orthogonalLoop=1;jettySize=auto;html=1;exitX=0.5;exitY=1;exitDx=0;exitDy=0;entryX=0.5;entryY=0;entryDx=0;entryDy=0;strokeColor=default;align=center;verticalAlign=middle;fontFamily=Helvetica;fontSize=11;fontColor=default;labelBackgroundColor=default;endArrow=classic;" edge="1" parent="1" source="6aoy4rqkBioUecq8IIgT-12" target="6aoy4rqkBioUecq8IIgT-23">
          <mxGeometry relative="1" as="geometry" />
        </mxCell>
        <mxCell id="6aoy4rqkBioUecq8IIgT-12" value="atb == parAtb" style="rhombus;whiteSpace=wrap;html=1;fontFamily=Helvetica;fontSize=11;fontColor=default;labelBackgroundColor=default;" vertex="1" parent="1">
          <mxGeometry x="120" y="290" width="100" height="60" as="geometry" />
        </mxCell>
        <mxCell id="6aoy4rqkBioUecq8IIgT-23" value="punkti += 1" style="rounded=1;whiteSpace=wrap;html=1;fontFamily=Helvetica;fontSize=11;fontColor=default;labelBackgroundColor=default;" vertex="1" parent="1">
          <mxGeometry x="135" y="370" width="70" height="30" as="geometry" />
        </mxCell>
        <mxCell id="6aoy4rqkBioUecq8IIgT-25" style="edgeStyle=none;rounded=0;orthogonalLoop=1;jettySize=auto;html=1;exitX=0.5;exitY=1;exitDx=0;exitDy=0;entryX=0.5;entryY=0;entryDx=0;entryDy=0;strokeColor=default;align=center;verticalAlign=middle;fontFamily=Helvetica;fontSize=11;fontColor=default;labelBackgroundColor=default;endArrow=classic;" edge="1" parent="1" target="6aoy4rqkBioUecq8IIgT-29">
          <mxGeometry relative="1" as="geometry">
            <mxPoint x="170" y="400" as="sourcePoint" />
          </mxGeometry>
        </mxCell>
        <mxCell id="6aoy4rqkBioUecq8IIgT-26" style="edgeStyle=none;rounded=0;orthogonalLoop=1;jettySize=auto;html=1;exitX=1;exitY=0.5;exitDx=0;exitDy=0;strokeColor=default;align=center;verticalAlign=middle;fontFamily=Helvetica;fontSize=11;fontColor=default;labelBackgroundColor=default;endArrow=classic;" edge="1" parent="1" source="6aoy4rqkBioUecq8IIgT-29">
          <mxGeometry relative="1" as="geometry">
            <mxPoint x="170" y="420" as="targetPoint" />
            <Array as="points">
              <mxPoint x="260" y="480" />
              <mxPoint x="260" y="420" />
              <mxPoint x="230" y="420" />
            </Array>
          </mxGeometry>
        </mxCell>
        <mxCell id="6aoy4rqkBioUecq8IIgT-27" value="Nē" style="edgeLabel;html=1;align=center;verticalAlign=middle;resizable=0;points=[];fontFamily=Helvetica;fontSize=11;fontColor=default;labelBackgroundColor=default;" vertex="1" connectable="0" parent="6aoy4rqkBioUecq8IIgT-26">
          <mxGeometry x="-0.8584" y="1" relative="1" as="geometry">
            <mxPoint x="6" y="1" as="offset" />
          </mxGeometry>
        </mxCell>
        <mxCell id="6aoy4rqkBioUecq8IIgT-28" style="edgeStyle=none;rounded=0;orthogonalLoop=1;jettySize=auto;html=1;exitX=0.5;exitY=1;exitDx=0;exitDy=0;entryX=0.5;entryY=0;entryDx=0;entryDy=0;strokeColor=default;align=center;verticalAlign=middle;fontFamily=Helvetica;fontSize=11;fontColor=default;labelBackgroundColor=default;endArrow=classic;" edge="1" parent="1" source="6aoy4rqkBioUecq8IIgT-29" target="6aoy4rqkBioUecq8IIgT-30">
          <mxGeometry relative="1" as="geometry" />
        </mxCell>
        <mxCell id="6aoy4rqkBioUecq8IIgT-29" value="atb == parAtb" style="rhombus;whiteSpace=wrap;html=1;fontFamily=Helvetica;fontSize=11;fontColor=default;labelBackgroundColor=default;" vertex="1" parent="1">
          <mxGeometry x="120" y="450" width="100" height="60" as="geometry" />
        </mxCell>
        <mxCell id="6aoy4rqkBioUecq8IIgT-30" value="punkti += 1" style="rounded=1;whiteSpace=wrap;html=1;fontFamily=Helvetica;fontSize=11;fontColor=default;labelBackgroundColor=default;" vertex="1" parent="1">
          <mxGeometry x="135" y="530" width="70" height="30" as="geometry" />
        </mxCell>
        <mxCell id="6aoy4rqkBioUecq8IIgT-31" style="edgeStyle=none;rounded=0;orthogonalLoop=1;jettySize=auto;html=1;exitX=0.5;exitY=1;exitDx=0;exitDy=0;entryX=0.5;entryY=0;entryDx=0;entryDy=0;strokeColor=default;align=center;verticalAlign=middle;fontFamily=Helvetica;fontSize=11;fontColor=default;labelBackgroundColor=default;endArrow=classic;" edge="1" parent="1" target="6aoy4rqkBioUecq8IIgT-35">
          <mxGeometry relative="1" as="geometry">
            <mxPoint x="170" y="560" as="sourcePoint" />
          </mxGeometry>
        </mxCell>
        <mxCell id="6aoy4rqkBioUecq8IIgT-32" style="edgeStyle=none;rounded=0;orthogonalLoop=1;jettySize=auto;html=1;exitX=1;exitY=0.5;exitDx=0;exitDy=0;strokeColor=default;align=center;verticalAlign=middle;fontFamily=Helvetica;fontSize=11;fontColor=default;labelBackgroundColor=default;endArrow=classic;" edge="1" parent="1" source="6aoy4rqkBioUecq8IIgT-35">
          <mxGeometry relative="1" as="geometry">
            <mxPoint x="170" y="580" as="targetPoint" />
            <Array as="points">
              <mxPoint x="260" y="640" />
              <mxPoint x="260" y="580" />
              <mxPoint x="230" y="580" />
            </Array>
          </mxGeometry>
        </mxCell>
        <mxCell id="6aoy4rqkBioUecq8IIgT-33" value="Nē" style="edgeLabel;html=1;align=center;verticalAlign=middle;resizable=0;points=[];fontFamily=Helvetica;fontSize=11;fontColor=default;labelBackgroundColor=default;" vertex="1" connectable="0" parent="6aoy4rqkBioUecq8IIgT-32">
          <mxGeometry x="-0.8584" y="1" relative="1" as="geometry">
            <mxPoint x="6" y="1" as="offset" />
          </mxGeometry>
        </mxCell>
        <mxCell id="6aoy4rqkBioUecq8IIgT-34" style="edgeStyle=none;rounded=0;orthogonalLoop=1;jettySize=auto;html=1;exitX=0.5;exitY=1;exitDx=0;exitDy=0;entryX=0.5;entryY=0;entryDx=0;entryDy=0;strokeColor=default;align=center;verticalAlign=middle;fontFamily=Helvetica;fontSize=11;fontColor=default;labelBackgroundColor=default;endArrow=classic;" edge="1" parent="1" source="6aoy4rqkBioUecq8IIgT-35" target="6aoy4rqkBioUecq8IIgT-36">
          <mxGeometry relative="1" as="geometry" />
        </mxCell>
        <mxCell id="6aoy4rqkBioUecq8IIgT-35" value="atb == parAtb" style="rhombus;whiteSpace=wrap;html=1;fontFamily=Helvetica;fontSize=11;fontColor=default;labelBackgroundColor=default;" vertex="1" parent="1">
          <mxGeometry x="120" y="610" width="100" height="60" as="geometry" />
        </mxCell>
        <mxCell id="6aoy4rqkBioUecq8IIgT-36" value="punkti += 1" style="rounded=1;whiteSpace=wrap;html=1;fontFamily=Helvetica;fontSize=11;fontColor=default;labelBackgroundColor=default;" vertex="1" parent="1">
          <mxGeometry x="135" y="690" width="70" height="30" as="geometry" />
        </mxCell>
        <mxCell id="6aoy4rqkBioUecq8IIgT-37" style="edgeStyle=none;rounded=0;orthogonalLoop=1;jettySize=auto;html=1;exitX=0.5;exitY=1;exitDx=0;exitDy=0;entryX=0.5;entryY=0;entryDx=0;entryDy=0;strokeColor=default;align=center;verticalAlign=middle;fontFamily=Helvetica;fontSize=11;fontColor=default;labelBackgroundColor=default;endArrow=classic;" edge="1" parent="1" target="6aoy4rqkBioUecq8IIgT-41">
          <mxGeometry relative="1" as="geometry">
            <mxPoint x="170" y="720" as="sourcePoint" />
          </mxGeometry>
        </mxCell>
        <mxCell id="6aoy4rqkBioUecq8IIgT-38" style="edgeStyle=none;rounded=0;orthogonalLoop=1;jettySize=auto;html=1;exitX=1;exitY=0.5;exitDx=0;exitDy=0;strokeColor=default;align=center;verticalAlign=middle;fontFamily=Helvetica;fontSize=11;fontColor=default;labelBackgroundColor=default;endArrow=classic;" edge="1" parent="1" source="6aoy4rqkBioUecq8IIgT-41">
          <mxGeometry relative="1" as="geometry">
            <mxPoint x="170" y="740" as="targetPoint" />
            <Array as="points">
              <mxPoint x="260" y="800" />
              <mxPoint x="260" y="740" />
              <mxPoint x="230" y="740" />
            </Array>
          </mxGeometry>
        </mxCell>
        <mxCell id="6aoy4rqkBioUecq8IIgT-39" value="Nē" style="edgeLabel;html=1;align=center;verticalAlign=middle;resizable=0;points=[];fontFamily=Helvetica;fontSize=11;fontColor=default;labelBackgroundColor=default;" vertex="1" connectable="0" parent="6aoy4rqkBioUecq8IIgT-38">
          <mxGeometry x="-0.8584" y="1" relative="1" as="geometry">
            <mxPoint x="6" y="1" as="offset" />
          </mxGeometry>
        </mxCell>
        <mxCell id="6aoy4rqkBioUecq8IIgT-40" style="edgeStyle=none;rounded=0;orthogonalLoop=1;jettySize=auto;html=1;exitX=0.5;exitY=1;exitDx=0;exitDy=0;entryX=0.5;entryY=0;entryDx=0;entryDy=0;strokeColor=default;align=center;verticalAlign=middle;fontFamily=Helvetica;fontSize=11;fontColor=default;labelBackgroundColor=default;endArrow=classic;" edge="1" parent="1" source="6aoy4rqkBioUecq8IIgT-41" target="6aoy4rqkBioUecq8IIgT-42">
          <mxGeometry relative="1" as="geometry" />
        </mxCell>
        <mxCell id="6aoy4rqkBioUecq8IIgT-41" value="atb == parAtb" style="rhombus;whiteSpace=wrap;html=1;fontFamily=Helvetica;fontSize=11;fontColor=default;labelBackgroundColor=default;" vertex="1" parent="1">
          <mxGeometry x="120" y="770" width="100" height="60" as="geometry" />
        </mxCell>
        <mxCell id="6aoy4rqkBioUecq8IIgT-67" style="edgeStyle=none;rounded=0;orthogonalLoop=1;jettySize=auto;html=1;entryX=0.5;entryY=0;entryDx=0;entryDy=0;strokeColor=default;align=center;verticalAlign=middle;fontFamily=Helvetica;fontSize=11;fontColor=default;labelBackgroundColor=default;endArrow=classic;exitX=0.5;exitY=1;exitDx=0;exitDy=0;" edge="1" parent="1" source="6aoy4rqkBioUecq8IIgT-42" target="6aoy4rqkBioUecq8IIgT-65">
          <mxGeometry relative="1" as="geometry">
            <Array as="points">
              <mxPoint x="170" y="920" />
              <mxPoint x="320" y="920" />
              <mxPoint x="320" y="280" />
              <mxPoint x="320" y="240" />
              <mxPoint x="390" y="240" />
            </Array>
          </mxGeometry>
        </mxCell>
        <mxCell id="6aoy4rqkBioUecq8IIgT-42" value="punkti += 1" style="rounded=1;whiteSpace=wrap;html=1;fontFamily=Helvetica;fontSize=11;fontColor=default;labelBackgroundColor=default;" vertex="1" parent="1">
          <mxGeometry x="135" y="850" width="70" height="30" as="geometry" />
        </mxCell>
        <mxCell id="6aoy4rqkBioUecq8IIgT-43" style="edgeStyle=none;rounded=0;orthogonalLoop=1;jettySize=auto;html=1;exitX=0.5;exitY=1;exitDx=0;exitDy=0;entryX=0.5;entryY=0;entryDx=0;entryDy=0;strokeColor=default;align=center;verticalAlign=middle;fontFamily=Helvetica;fontSize=11;fontColor=default;labelBackgroundColor=default;endArrow=classic;" edge="1" parent="1" target="6aoy4rqkBioUecq8IIgT-47">
          <mxGeometry relative="1" as="geometry">
            <mxPoint x="390" y="720" as="sourcePoint" />
          </mxGeometry>
        </mxCell>
        <mxCell id="6aoy4rqkBioUecq8IIgT-44" style="edgeStyle=none;rounded=0;orthogonalLoop=1;jettySize=auto;html=1;exitX=1;exitY=0.5;exitDx=0;exitDy=0;strokeColor=default;align=center;verticalAlign=middle;fontFamily=Helvetica;fontSize=11;fontColor=default;labelBackgroundColor=default;endArrow=classic;" edge="1" parent="1" source="6aoy4rqkBioUecq8IIgT-47">
          <mxGeometry relative="1" as="geometry">
            <mxPoint x="390" y="740" as="targetPoint" />
            <Array as="points">
              <mxPoint x="480" y="800" />
              <mxPoint x="480" y="740" />
              <mxPoint x="450" y="740" />
            </Array>
          </mxGeometry>
        </mxCell>
        <mxCell id="6aoy4rqkBioUecq8IIgT-45" value="Nē" style="edgeLabel;html=1;align=center;verticalAlign=middle;resizable=0;points=[];fontFamily=Helvetica;fontSize=11;fontColor=default;labelBackgroundColor=default;" vertex="1" connectable="0" parent="6aoy4rqkBioUecq8IIgT-44">
          <mxGeometry x="-0.8584" y="1" relative="1" as="geometry">
            <mxPoint x="6" y="1" as="offset" />
          </mxGeometry>
        </mxCell>
        <mxCell id="6aoy4rqkBioUecq8IIgT-46" style="edgeStyle=none;rounded=0;orthogonalLoop=1;jettySize=auto;html=1;exitX=0.5;exitY=1;exitDx=0;exitDy=0;entryX=0.5;entryY=0;entryDx=0;entryDy=0;strokeColor=default;align=center;verticalAlign=middle;fontFamily=Helvetica;fontSize=11;fontColor=default;labelBackgroundColor=default;endArrow=classic;" edge="1" parent="1" source="6aoy4rqkBioUecq8IIgT-47" target="6aoy4rqkBioUecq8IIgT-48">
          <mxGeometry relative="1" as="geometry" />
        </mxCell>
        <mxCell id="6aoy4rqkBioUecq8IIgT-47" value="atb == parAtb" style="rhombus;whiteSpace=wrap;html=1;fontFamily=Helvetica;fontSize=11;fontColor=default;labelBackgroundColor=default;" vertex="1" parent="1">
          <mxGeometry x="340" y="770" width="100" height="60" as="geometry" />
        </mxCell>
        <mxCell id="6aoy4rqkBioUecq8IIgT-80" style="edgeStyle=none;rounded=0;orthogonalLoop=1;jettySize=auto;html=1;exitX=0.5;exitY=1;exitDx=0;exitDy=0;entryX=0.5;entryY=0;entryDx=0;entryDy=0;strokeColor=default;align=center;verticalAlign=middle;fontFamily=Helvetica;fontSize=11;fontColor=default;labelBackgroundColor=default;endArrow=classic;" edge="1" parent="1" source="6aoy4rqkBioUecq8IIgT-48" target="6aoy4rqkBioUecq8IIgT-72">
          <mxGeometry relative="1" as="geometry">
            <Array as="points">
              <mxPoint x="390" y="920" />
              <mxPoint x="540" y="920" />
              <mxPoint x="540" y="240" />
              <mxPoint x="610" y="240" />
            </Array>
          </mxGeometry>
        </mxCell>
        <mxCell id="6aoy4rqkBioUecq8IIgT-48" value="punkti += 1" style="rounded=1;whiteSpace=wrap;html=1;fontFamily=Helvetica;fontSize=11;fontColor=default;labelBackgroundColor=default;" vertex="1" parent="1">
          <mxGeometry x="355" y="850" width="70" height="30" as="geometry" />
        </mxCell>
        <mxCell id="6aoy4rqkBioUecq8IIgT-49" style="edgeStyle=none;rounded=0;orthogonalLoop=1;jettySize=auto;html=1;exitX=0.5;exitY=1;exitDx=0;exitDy=0;entryX=0.5;entryY=0;entryDx=0;entryDy=0;strokeColor=default;align=center;verticalAlign=middle;fontFamily=Helvetica;fontSize=11;fontColor=default;labelBackgroundColor=default;endArrow=classic;" edge="1" parent="1" target="6aoy4rqkBioUecq8IIgT-53">
          <mxGeometry relative="1" as="geometry">
            <mxPoint x="390" y="560" as="sourcePoint" />
          </mxGeometry>
        </mxCell>
        <mxCell id="6aoy4rqkBioUecq8IIgT-50" style="edgeStyle=none;rounded=0;orthogonalLoop=1;jettySize=auto;html=1;exitX=1;exitY=0.5;exitDx=0;exitDy=0;strokeColor=default;align=center;verticalAlign=middle;fontFamily=Helvetica;fontSize=11;fontColor=default;labelBackgroundColor=default;endArrow=classic;" edge="1" parent="1" source="6aoy4rqkBioUecq8IIgT-53">
          <mxGeometry relative="1" as="geometry">
            <mxPoint x="390" y="580" as="targetPoint" />
            <Array as="points">
              <mxPoint x="480" y="640" />
              <mxPoint x="480" y="580" />
              <mxPoint x="450" y="580" />
            </Array>
          </mxGeometry>
        </mxCell>
        <mxCell id="6aoy4rqkBioUecq8IIgT-51" value="Nē" style="edgeLabel;html=1;align=center;verticalAlign=middle;resizable=0;points=[];fontFamily=Helvetica;fontSize=11;fontColor=default;labelBackgroundColor=default;" vertex="1" connectable="0" parent="6aoy4rqkBioUecq8IIgT-50">
          <mxGeometry x="-0.8584" y="1" relative="1" as="geometry">
            <mxPoint x="6" y="1" as="offset" />
          </mxGeometry>
        </mxCell>
        <mxCell id="6aoy4rqkBioUecq8IIgT-52" style="edgeStyle=none;rounded=0;orthogonalLoop=1;jettySize=auto;html=1;exitX=0.5;exitY=1;exitDx=0;exitDy=0;entryX=0.5;entryY=0;entryDx=0;entryDy=0;strokeColor=default;align=center;verticalAlign=middle;fontFamily=Helvetica;fontSize=11;fontColor=default;labelBackgroundColor=default;endArrow=classic;" edge="1" parent="1" source="6aoy4rqkBioUecq8IIgT-53" target="6aoy4rqkBioUecq8IIgT-54">
          <mxGeometry relative="1" as="geometry" />
        </mxCell>
        <mxCell id="6aoy4rqkBioUecq8IIgT-53" value="atb == parAtb" style="rhombus;whiteSpace=wrap;html=1;fontFamily=Helvetica;fontSize=11;fontColor=default;labelBackgroundColor=default;" vertex="1" parent="1">
          <mxGeometry x="340" y="610" width="100" height="60" as="geometry" />
        </mxCell>
        <mxCell id="6aoy4rqkBioUecq8IIgT-54" value="punkti += 1" style="rounded=1;whiteSpace=wrap;html=1;fontFamily=Helvetica;fontSize=11;fontColor=default;labelBackgroundColor=default;" vertex="1" parent="1">
          <mxGeometry x="355" y="690" width="70" height="30" as="geometry" />
        </mxCell>
        <mxCell id="6aoy4rqkBioUecq8IIgT-55" style="edgeStyle=none;rounded=0;orthogonalLoop=1;jettySize=auto;html=1;exitX=0.5;exitY=1;exitDx=0;exitDy=0;entryX=0.5;entryY=0;entryDx=0;entryDy=0;strokeColor=default;align=center;verticalAlign=middle;fontFamily=Helvetica;fontSize=11;fontColor=default;labelBackgroundColor=default;endArrow=classic;" edge="1" parent="1" target="6aoy4rqkBioUecq8IIgT-59">
          <mxGeometry relative="1" as="geometry">
            <mxPoint x="390" y="400" as="sourcePoint" />
          </mxGeometry>
        </mxCell>
        <mxCell id="6aoy4rqkBioUecq8IIgT-56" style="edgeStyle=none;rounded=0;orthogonalLoop=1;jettySize=auto;html=1;exitX=1;exitY=0.5;exitDx=0;exitDy=0;strokeColor=default;align=center;verticalAlign=middle;fontFamily=Helvetica;fontSize=11;fontColor=default;labelBackgroundColor=default;endArrow=classic;" edge="1" parent="1" source="6aoy4rqkBioUecq8IIgT-59">
          <mxGeometry relative="1" as="geometry">
            <mxPoint x="390" y="420" as="targetPoint" />
            <Array as="points">
              <mxPoint x="480" y="480" />
              <mxPoint x="480" y="420" />
              <mxPoint x="450" y="420" />
            </Array>
          </mxGeometry>
        </mxCell>
        <mxCell id="6aoy4rqkBioUecq8IIgT-57" value="Nē" style="edgeLabel;html=1;align=center;verticalAlign=middle;resizable=0;points=[];fontFamily=Helvetica;fontSize=11;fontColor=default;labelBackgroundColor=default;" vertex="1" connectable="0" parent="6aoy4rqkBioUecq8IIgT-56">
          <mxGeometry x="-0.8584" y="1" relative="1" as="geometry">
            <mxPoint x="6" y="1" as="offset" />
          </mxGeometry>
        </mxCell>
        <mxCell id="6aoy4rqkBioUecq8IIgT-58" style="edgeStyle=none;rounded=0;orthogonalLoop=1;jettySize=auto;html=1;exitX=0.5;exitY=1;exitDx=0;exitDy=0;entryX=0.5;entryY=0;entryDx=0;entryDy=0;strokeColor=default;align=center;verticalAlign=middle;fontFamily=Helvetica;fontSize=11;fontColor=default;labelBackgroundColor=default;endArrow=classic;" edge="1" parent="1" source="6aoy4rqkBioUecq8IIgT-59" target="6aoy4rqkBioUecq8IIgT-60">
          <mxGeometry relative="1" as="geometry" />
        </mxCell>
        <mxCell id="6aoy4rqkBioUecq8IIgT-59" value="atb == parAtb" style="rhombus;whiteSpace=wrap;html=1;fontFamily=Helvetica;fontSize=11;fontColor=default;labelBackgroundColor=default;" vertex="1" parent="1">
          <mxGeometry x="340" y="450" width="100" height="60" as="geometry" />
        </mxCell>
        <mxCell id="6aoy4rqkBioUecq8IIgT-60" value="punkti += 1" style="rounded=1;whiteSpace=wrap;html=1;fontFamily=Helvetica;fontSize=11;fontColor=default;labelBackgroundColor=default;" vertex="1" parent="1">
          <mxGeometry x="355" y="530" width="70" height="30" as="geometry" />
        </mxCell>
        <mxCell id="6aoy4rqkBioUecq8IIgT-62" style="edgeStyle=none;rounded=0;orthogonalLoop=1;jettySize=auto;html=1;exitX=1;exitY=0.5;exitDx=0;exitDy=0;strokeColor=default;align=center;verticalAlign=middle;fontFamily=Helvetica;fontSize=11;fontColor=default;labelBackgroundColor=default;endArrow=classic;" edge="1" parent="1" source="6aoy4rqkBioUecq8IIgT-65">
          <mxGeometry relative="1" as="geometry">
            <mxPoint x="390" y="260" as="targetPoint" />
            <Array as="points">
              <mxPoint x="480" y="320" />
              <mxPoint x="480" y="260" />
              <mxPoint x="450" y="260" />
            </Array>
          </mxGeometry>
        </mxCell>
        <mxCell id="6aoy4rqkBioUecq8IIgT-63" value="Nē" style="edgeLabel;html=1;align=center;verticalAlign=middle;resizable=0;points=[];fontFamily=Helvetica;fontSize=11;fontColor=default;labelBackgroundColor=default;" vertex="1" connectable="0" parent="6aoy4rqkBioUecq8IIgT-62">
          <mxGeometry x="-0.8584" y="1" relative="1" as="geometry">
            <mxPoint x="6" y="1" as="offset" />
          </mxGeometry>
        </mxCell>
        <mxCell id="6aoy4rqkBioUecq8IIgT-64" style="edgeStyle=none;rounded=0;orthogonalLoop=1;jettySize=auto;html=1;exitX=0.5;exitY=1;exitDx=0;exitDy=0;entryX=0.5;entryY=0;entryDx=0;entryDy=0;strokeColor=default;align=center;verticalAlign=middle;fontFamily=Helvetica;fontSize=11;fontColor=default;labelBackgroundColor=default;endArrow=classic;" edge="1" parent="1" source="6aoy4rqkBioUecq8IIgT-65" target="6aoy4rqkBioUecq8IIgT-66">
          <mxGeometry relative="1" as="geometry" />
        </mxCell>
        <mxCell id="6aoy4rqkBioUecq8IIgT-65" value="atb == parAtb" style="rhombus;whiteSpace=wrap;html=1;fontFamily=Helvetica;fontSize=11;fontColor=default;labelBackgroundColor=default;" vertex="1" parent="1">
          <mxGeometry x="340" y="290" width="100" height="60" as="geometry" />
        </mxCell>
        <mxCell id="6aoy4rqkBioUecq8IIgT-66" value="punkti += 1" style="rounded=1;whiteSpace=wrap;html=1;fontFamily=Helvetica;fontSize=11;fontColor=default;labelBackgroundColor=default;" vertex="1" parent="1">
          <mxGeometry x="355" y="370" width="70" height="30" as="geometry" />
        </mxCell>
        <mxCell id="6aoy4rqkBioUecq8IIgT-69" style="edgeStyle=none;rounded=0;orthogonalLoop=1;jettySize=auto;html=1;exitX=1;exitY=0.5;exitDx=0;exitDy=0;strokeColor=default;align=center;verticalAlign=middle;fontFamily=Helvetica;fontSize=11;fontColor=default;labelBackgroundColor=default;endArrow=classic;" edge="1" parent="1" source="6aoy4rqkBioUecq8IIgT-72">
          <mxGeometry relative="1" as="geometry">
            <mxPoint x="610" y="260" as="targetPoint" />
            <Array as="points">
              <mxPoint x="700" y="320" />
              <mxPoint x="700" y="260" />
              <mxPoint x="670" y="260" />
            </Array>
          </mxGeometry>
        </mxCell>
        <mxCell id="6aoy4rqkBioUecq8IIgT-70" value="Nē" style="edgeLabel;html=1;align=center;verticalAlign=middle;resizable=0;points=[];fontFamily=Helvetica;fontSize=11;fontColor=default;labelBackgroundColor=default;" vertex="1" connectable="0" parent="6aoy4rqkBioUecq8IIgT-69">
          <mxGeometry x="-0.8584" y="1" relative="1" as="geometry">
            <mxPoint x="6" y="1" as="offset" />
          </mxGeometry>
        </mxCell>
        <mxCell id="6aoy4rqkBioUecq8IIgT-71" style="edgeStyle=none;rounded=0;orthogonalLoop=1;jettySize=auto;html=1;exitX=0.5;exitY=1;exitDx=0;exitDy=0;entryX=0.5;entryY=0;entryDx=0;entryDy=0;strokeColor=default;align=center;verticalAlign=middle;fontFamily=Helvetica;fontSize=11;fontColor=default;labelBackgroundColor=default;endArrow=classic;" edge="1" parent="1" source="6aoy4rqkBioUecq8IIgT-72" target="6aoy4rqkBioUecq8IIgT-73">
          <mxGeometry relative="1" as="geometry" />
        </mxCell>
        <mxCell id="6aoy4rqkBioUecq8IIgT-72" value="atb == parAtb" style="rhombus;whiteSpace=wrap;html=1;fontFamily=Helvetica;fontSize=11;fontColor=default;labelBackgroundColor=default;" vertex="1" parent="1">
          <mxGeometry x="560" y="290" width="100" height="60" as="geometry" />
        </mxCell>
        <mxCell id="6aoy4rqkBioUecq8IIgT-73" value="punkti += 1" style="rounded=1;whiteSpace=wrap;html=1;fontFamily=Helvetica;fontSize=11;fontColor=default;labelBackgroundColor=default;" vertex="1" parent="1">
          <mxGeometry x="575" y="370" width="70" height="30" as="geometry" />
        </mxCell>
        <mxCell id="6aoy4rqkBioUecq8IIgT-74" style="edgeStyle=none;rounded=0;orthogonalLoop=1;jettySize=auto;html=1;exitX=0.5;exitY=1;exitDx=0;exitDy=0;entryX=0.5;entryY=0;entryDx=0;entryDy=0;strokeColor=default;align=center;verticalAlign=middle;fontFamily=Helvetica;fontSize=11;fontColor=default;labelBackgroundColor=default;endArrow=classic;" edge="1" parent="1" target="6aoy4rqkBioUecq8IIgT-78">
          <mxGeometry relative="1" as="geometry">
            <mxPoint x="610" y="400" as="sourcePoint" />
          </mxGeometry>
        </mxCell>
        <mxCell id="6aoy4rqkBioUecq8IIgT-75" style="edgeStyle=none;rounded=0;orthogonalLoop=1;jettySize=auto;html=1;exitX=1;exitY=0.5;exitDx=0;exitDy=0;strokeColor=default;align=center;verticalAlign=middle;fontFamily=Helvetica;fontSize=11;fontColor=default;labelBackgroundColor=default;endArrow=classic;" edge="1" parent="1" source="6aoy4rqkBioUecq8IIgT-78">
          <mxGeometry relative="1" as="geometry">
            <mxPoint x="610" y="420" as="targetPoint" />
            <Array as="points">
              <mxPoint x="700" y="480" />
              <mxPoint x="700" y="420" />
              <mxPoint x="670" y="420" />
            </Array>
          </mxGeometry>
        </mxCell>
        <mxCell id="6aoy4rqkBioUecq8IIgT-76" value="Nē" style="edgeLabel;html=1;align=center;verticalAlign=middle;resizable=0;points=[];fontFamily=Helvetica;fontSize=11;fontColor=default;labelBackgroundColor=default;" vertex="1" connectable="0" parent="6aoy4rqkBioUecq8IIgT-75">
          <mxGeometry x="-0.8584" y="1" relative="1" as="geometry">
            <mxPoint x="6" y="1" as="offset" />
          </mxGeometry>
        </mxCell>
        <mxCell id="6aoy4rqkBioUecq8IIgT-77" style="edgeStyle=none;rounded=0;orthogonalLoop=1;jettySize=auto;html=1;exitX=0.5;exitY=1;exitDx=0;exitDy=0;entryX=0.5;entryY=0;entryDx=0;entryDy=0;strokeColor=default;align=center;verticalAlign=middle;fontFamily=Helvetica;fontSize=11;fontColor=default;labelBackgroundColor=default;endArrow=classic;" edge="1" parent="1" source="6aoy4rqkBioUecq8IIgT-78" target="6aoy4rqkBioUecq8IIgT-79">
          <mxGeometry relative="1" as="geometry" />
        </mxCell>
        <mxCell id="6aoy4rqkBioUecq8IIgT-78" value="atb == parAtb" style="rhombus;whiteSpace=wrap;html=1;fontFamily=Helvetica;fontSize=11;fontColor=default;labelBackgroundColor=default;" vertex="1" parent="1">
          <mxGeometry x="560" y="450" width="100" height="60" as="geometry" />
        </mxCell>
        <mxCell id="6aoy4rqkBioUecq8IIgT-82" style="edgeStyle=none;rounded=0;orthogonalLoop=1;jettySize=auto;html=1;exitX=0.5;exitY=1;exitDx=0;exitDy=0;entryX=0.5;entryY=0;entryDx=0;entryDy=0;strokeColor=default;align=center;verticalAlign=middle;fontFamily=Helvetica;fontSize=11;fontColor=default;labelBackgroundColor=default;endArrow=classic;" edge="1" parent="1" source="6aoy4rqkBioUecq8IIgT-79" target="6aoy4rqkBioUecq8IIgT-81">
          <mxGeometry relative="1" as="geometry" />
        </mxCell>
        <mxCell id="6aoy4rqkBioUecq8IIgT-79" value="punkti += 1" style="rounded=1;whiteSpace=wrap;html=1;fontFamily=Helvetica;fontSize=11;fontColor=default;labelBackgroundColor=default;" vertex="1" parent="1">
          <mxGeometry x="575" y="530" width="70" height="30" as="geometry" />
        </mxCell>
        <mxCell id="6aoy4rqkBioUecq8IIgT-84" style="edgeStyle=none;rounded=0;orthogonalLoop=1;jettySize=auto;html=1;exitX=0.5;exitY=1;exitDx=0;exitDy=0;entryX=0.5;entryY=0;entryDx=0;entryDy=0;strokeColor=default;align=center;verticalAlign=middle;fontFamily=Helvetica;fontSize=11;fontColor=default;labelBackgroundColor=default;endArrow=classic;" edge="1" parent="1" source="6aoy4rqkBioUecq8IIgT-81" target="6aoy4rqkBioUecq8IIgT-83">
          <mxGeometry relative="1" as="geometry" />
        </mxCell>
        <mxCell id="6aoy4rqkBioUecq8IIgT-81" value="Paradīt rezutātus" style="rounded=1;whiteSpace=wrap;html=1;fontFamily=Helvetica;fontSize=11;fontColor=default;labelBackgroundColor=default;" vertex="1" parent="1">
          <mxGeometry x="560" y="590" width="100" height="40" as="geometry" />
        </mxCell>
        <mxCell id="6aoy4rqkBioUecq8IIgT-85" style="edgeStyle=none;rounded=0;orthogonalLoop=1;jettySize=auto;html=1;exitX=1;exitY=0.5;exitDx=0;exitDy=0;strokeColor=default;align=center;verticalAlign=middle;fontFamily=Helvetica;fontSize=11;fontColor=default;labelBackgroundColor=default;endArrow=classic;" edge="1" parent="1" source="6aoy4rqkBioUecq8IIgT-83">
          <mxGeometry relative="1" as="geometry">
            <mxPoint x="810" y="694.6666666666667" as="targetPoint" />
          </mxGeometry>
        </mxCell>
        <mxCell id="6aoy4rqkBioUecq8IIgT-86" value="Nē" style="edgeLabel;html=1;align=center;verticalAlign=middle;resizable=0;points=[];fontFamily=Helvetica;fontSize=11;fontColor=default;labelBackgroundColor=default;" vertex="1" connectable="0" parent="6aoy4rqkBioUecq8IIgT-85">
          <mxGeometry x="-0.6748" relative="1" as="geometry">
            <mxPoint as="offset" />
          </mxGeometry>
        </mxCell>
        <mxCell id="6aoy4rqkBioUecq8IIgT-87" style="edgeStyle=none;rounded=0;orthogonalLoop=1;jettySize=auto;html=1;exitX=0.5;exitY=1;exitDx=0;exitDy=0;strokeColor=default;align=center;verticalAlign=middle;fontFamily=Helvetica;fontSize=11;fontColor=default;labelBackgroundColor=default;endArrow=classic;" edge="1" parent="1" source="6aoy4rqkBioUecq8IIgT-83">
          <mxGeometry relative="1" as="geometry">
            <mxPoint x="170" y="180" as="targetPoint" />
            <Array as="points">
              <mxPoint x="610" y="1000" />
              <mxPoint x="80" y="1000" />
              <mxPoint x="80" y="180" />
            </Array>
          </mxGeometry>
        </mxCell>
        <mxCell id="6aoy4rqkBioUecq8IIgT-88" value="Jā" style="edgeLabel;html=1;align=center;verticalAlign=middle;resizable=0;points=[];fontFamily=Helvetica;fontSize=11;fontColor=default;labelBackgroundColor=default;" vertex="1" connectable="0" parent="6aoy4rqkBioUecq8IIgT-87">
          <mxGeometry x="-0.9244" y="1" relative="1" as="geometry">
            <mxPoint y="1" as="offset" />
          </mxGeometry>
        </mxCell>
        <mxCell id="6aoy4rqkBioUecq8IIgT-83" value="velReiz == True" style="rhombus;whiteSpace=wrap;html=1;fontFamily=Helvetica;fontSize=11;fontColor=default;labelBackgroundColor=default;" vertex="1" parent="1">
          <mxGeometry x="560" y="660" width="100" height="70" as="geometry" />
        </mxCell>
        <mxCell id="6aoy4rqkBioUecq8IIgT-89" value="Jā" style="text;html=1;align=center;verticalAlign=middle;whiteSpace=wrap;rounded=0;fontFamily=Helvetica;fontSize=11;fontColor=default;labelBackgroundColor=default;" vertex="1" parent="1">
          <mxGeometry x="154" y="346" width="60" height="30" as="geometry" />
        </mxCell>
        <mxCell id="6aoy4rqkBioUecq8IIgT-90" value="Jā" style="text;html=1;align=center;verticalAlign=middle;whiteSpace=wrap;rounded=0;fontFamily=Helvetica;fontSize=11;fontColor=default;labelBackgroundColor=default;" vertex="1" parent="1">
          <mxGeometry x="158" y="506" width="60" height="30" as="geometry" />
        </mxCell>
        <mxCell id="6aoy4rqkBioUecq8IIgT-91" value="Jā" style="text;html=1;align=center;verticalAlign=middle;whiteSpace=wrap;rounded=0;fontFamily=Helvetica;fontSize=11;fontColor=default;labelBackgroundColor=default;" vertex="1" parent="1">
          <mxGeometry x="159" y="666" width="60" height="30" as="geometry" />
        </mxCell>
        <mxCell id="6aoy4rqkBioUecq8IIgT-92" value="Jā" style="text;html=1;align=center;verticalAlign=middle;whiteSpace=wrap;rounded=0;fontFamily=Helvetica;fontSize=11;fontColor=default;labelBackgroundColor=default;" vertex="1" parent="1">
          <mxGeometry x="160" y="826" width="60" height="30" as="geometry" />
        </mxCell>
        <mxCell id="6aoy4rqkBioUecq8IIgT-93" value="Jā" style="text;html=1;align=center;verticalAlign=middle;whiteSpace=wrap;rounded=0;fontFamily=Helvetica;fontSize=11;fontColor=default;labelBackgroundColor=default;" vertex="1" parent="1">
          <mxGeometry x="380" y="827" width="60" height="30" as="geometry" />
        </mxCell>
        <mxCell id="6aoy4rqkBioUecq8IIgT-94" value="Jā" style="text;html=1;align=center;verticalAlign=middle;whiteSpace=wrap;rounded=0;fontFamily=Helvetica;fontSize=11;fontColor=default;labelBackgroundColor=default;" vertex="1" parent="1">
          <mxGeometry x="380" y="665" width="60" height="30" as="geometry" />
        </mxCell>
        <mxCell id="6aoy4rqkBioUecq8IIgT-95" value="Jā" style="text;html=1;align=center;verticalAlign=middle;whiteSpace=wrap;rounded=0;fontFamily=Helvetica;fontSize=11;fontColor=default;labelBackgroundColor=default;" vertex="1" parent="1">
          <mxGeometry x="380" y="506" width="60" height="30" as="geometry" />
        </mxCell>
        <mxCell id="6aoy4rqkBioUecq8IIgT-96" value="Jā" style="text;html=1;align=center;verticalAlign=middle;whiteSpace=wrap;rounded=0;fontFamily=Helvetica;fontSize=11;fontColor=default;labelBackgroundColor=default;" vertex="1" parent="1">
          <mxGeometry x="380" y="346" width="60" height="30" as="geometry" />
        </mxCell>
        <mxCell id="6aoy4rqkBioUecq8IIgT-97" value="Jā" style="text;html=1;align=center;verticalAlign=middle;whiteSpace=wrap;rounded=0;fontFamily=Helvetica;fontSize=11;fontColor=default;labelBackgroundColor=default;" vertex="1" parent="1">
          <mxGeometry x="600" y="346" width="60" height="30" as="geometry" />
        </mxCell>
        <mxCell id="6aoy4rqkBioUecq8IIgT-98" value="Jā" style="text;html=1;align=center;verticalAlign=middle;whiteSpace=wrap;rounded=0;fontFamily=Helvetica;fontSize=11;fontColor=default;labelBackgroundColor=default;" vertex="1" parent="1">
          <mxGeometry x="600" y="506" width="60" height="30" as="geometry" />
        </mxCell>
      </root>
    </mxGraphModel>
  </diagram>
</mxfile>
